%TF.GenerationSoftware,KiCad,Pcbnew,8.0.3*%
%TF.CreationDate,2024-10-25T10:31:09+05:30*%
%TF.ProjectId,TINY_HALL_SENSOR,54494e59-5f48-4414-9c4c-5f53454e534f,rev?*%
%TF.SameCoordinates,Original*%
%TF.FileFunction,Copper,L1,Top*%
%TF.FilePolarity,Positive*%
%FSLAX46Y46*%
G04 Gerber Fmt 4.6, Leading zero omitted, Abs format (unit mm)*
G04 Created by KiCad (PCBNEW 8.0.3) date 2024-10-25 10:31:09*
%MOMM*%
%LPD*%
G01*
G04 APERTURE LIST*
%TA.AperFunction,SMDPad,CuDef*%
%ADD10R,1.250000X0.600000*%
%TD*%
%TA.AperFunction,SMDPad,CuDef*%
%ADD11R,0.980000X0.920000*%
%TD*%
%TA.AperFunction,SMDPad,CuDef*%
%ADD12R,0.700000X1.800000*%
%TD*%
%TA.AperFunction,SMDPad,CuDef*%
%ADD13R,1.600000X2.200000*%
%TD*%
%TA.AperFunction,SMDPad,CuDef*%
%ADD14R,1.000000X0.850000*%
%TD*%
%TA.AperFunction,Conductor*%
%ADD15C,0.200000*%
%TD*%
%TA.AperFunction,Conductor*%
%ADD16C,0.150000*%
%TD*%
G04 APERTURE END LIST*
D10*
%TO.P,IC1,1,VCC*%
%TO.N,VCC*%
X5350000Y-7050000D03*
%TO.P,IC1,2,OUT*%
%TO.N,SIG*%
X5350000Y-8950000D03*
%TO.P,IC1,3,GND*%
%TO.N,GND*%
X7450000Y-8000000D03*
%TD*%
D11*
%TO.P,C1,1*%
%TO.N,VCC*%
X9300000Y-6425000D03*
%TO.P,C1,2*%
%TO.N,GND*%
X9300000Y-7975000D03*
%TD*%
D12*
%TO.P,J2,1,1*%
%TO.N,VCC*%
X4750000Y-4806700D03*
%TO.P,J2,2,2*%
%TO.N,SIG*%
X6000000Y-4806700D03*
%TO.P,J2,3,3*%
%TO.N,GND*%
X7250000Y-4806700D03*
D13*
%TO.P,J2,S1*%
X2400000Y-1506700D03*
%TO.P,J2,S2*%
X9600000Y-1506700D03*
%TD*%
D14*
%TO.P,R1,1*%
%TO.N,VCC*%
X3200000Y-7250000D03*
%TO.P,R1,2*%
%TO.N,SIG*%
X3200000Y-8750000D03*
%TD*%
D15*
%TO.N,VCC*%
X4750000Y-6450000D02*
X5350000Y-7050000D01*
X4750000Y-4806700D02*
X4750000Y-6450000D01*
%TO.N,GND*%
X7450000Y-7975000D02*
X7450000Y-8000000D01*
%TO.N,VCC*%
X2564100Y-7976700D02*
X2375200Y-8165600D01*
X10091700Y-8623800D02*
X10091700Y-7311900D01*
X10091700Y-7311900D02*
X9966500Y-7186700D01*
X5350000Y-7050000D02*
X4423300Y-7050000D01*
X3200000Y-7976700D02*
X2564100Y-7976700D01*
X3200000Y-7250000D02*
X3200000Y-7976700D01*
X9300000Y-6425000D02*
X9300000Y-7186700D01*
X4223300Y-7250000D02*
X3200000Y-7250000D01*
X9966500Y-7186700D02*
X9300000Y-7186700D01*
D16*
X2651500Y-9586700D02*
X9128800Y-9586700D01*
D15*
X2375200Y-8165600D02*
X2375200Y-9310400D01*
X4423300Y-7050000D02*
X4223300Y-7250000D01*
X9128800Y-9586700D02*
X10091700Y-8623800D01*
X2375200Y-9310400D02*
X2651500Y-9586700D01*
%TO.N,SIG*%
X4223300Y-8750000D02*
X4423300Y-8950000D01*
X5425200Y-8348300D02*
X5350000Y-8348300D01*
X6000000Y-6008400D02*
X6324800Y-6333200D01*
X5350000Y-8950000D02*
X5350000Y-8348300D01*
X6000000Y-4806700D02*
X6000000Y-6008400D01*
X6324800Y-6333200D02*
X6324800Y-7448700D01*
X6324800Y-7448700D02*
X5425200Y-8348300D01*
X3200000Y-8750000D02*
X4223300Y-8750000D01*
X5350000Y-8950000D02*
X4423300Y-8950000D01*
%TD*%
%TA.AperFunction,Conductor*%
%TO.N,GND*%
G36*
X1043039Y-520185D02*
G01*
X1088794Y-572989D01*
X1100000Y-624500D01*
X1100000Y-1256700D01*
X3700000Y-1256700D01*
X3700000Y-624500D01*
X3719685Y-557461D01*
X3772489Y-511706D01*
X3824000Y-500500D01*
X8176000Y-500500D01*
X8243039Y-520185D01*
X8288794Y-572989D01*
X8300000Y-624500D01*
X8300000Y-1256700D01*
X10900000Y-1256700D01*
X10900000Y-624500D01*
X10919685Y-557461D01*
X10972489Y-511706D01*
X11024000Y-500500D01*
X11375500Y-500500D01*
X11442539Y-520185D01*
X11488294Y-572989D01*
X11499500Y-624500D01*
X11499500Y-9375500D01*
X11479815Y-9442539D01*
X11427011Y-9488294D01*
X11375500Y-9499500D01*
X10364596Y-9499500D01*
X10297557Y-9479815D01*
X10251802Y-9427011D01*
X10241858Y-9357853D01*
X10270883Y-9294297D01*
X10276915Y-9287819D01*
X10341004Y-9223730D01*
X10450206Y-9114527D01*
X10450211Y-9114524D01*
X10460414Y-9104320D01*
X10460416Y-9104320D01*
X10572220Y-8992516D01*
X10642410Y-8870943D01*
X10651277Y-8855585D01*
X10692200Y-8702858D01*
X10692200Y-8544743D01*
X10692200Y-7400960D01*
X10692201Y-7400947D01*
X10692201Y-7232844D01*
X10692201Y-7232843D01*
X10651277Y-7080116D01*
X10630669Y-7044422D01*
X10572223Y-6943188D01*
X10572220Y-6943184D01*
X10447020Y-6817985D01*
X10447020Y-6817984D01*
X10329469Y-6700433D01*
X10331327Y-6698574D01*
X10297802Y-6652642D01*
X10290499Y-6610717D01*
X10290499Y-5917129D01*
X10290498Y-5917123D01*
X10284091Y-5857516D01*
X10233797Y-5722671D01*
X10233793Y-5722664D01*
X10147547Y-5607455D01*
X10147544Y-5607452D01*
X10032335Y-5521206D01*
X10032328Y-5521202D01*
X9897482Y-5470908D01*
X9897483Y-5470908D01*
X9837883Y-5464501D01*
X9837881Y-5464500D01*
X9837873Y-5464500D01*
X9837864Y-5464500D01*
X8762129Y-5464500D01*
X8762123Y-5464501D01*
X8702516Y-5470908D01*
X8567671Y-5521202D01*
X8567664Y-5521206D01*
X8452455Y-5607452D01*
X8452452Y-5607455D01*
X8366206Y-5722664D01*
X8366202Y-5722671D01*
X8340182Y-5792436D01*
X8298311Y-5848370D01*
X8284699Y-5853446D01*
X8294332Y-5863079D01*
X8309500Y-5922507D01*
X8309500Y-6932870D01*
X8309501Y-6932876D01*
X8315909Y-6992484D01*
X8335280Y-7044422D01*
X8340264Y-7114113D01*
X8306778Y-7175436D01*
X8245455Y-7208920D01*
X8190681Y-7205004D01*
X8189930Y-7208187D01*
X8182372Y-7206401D01*
X8122844Y-7200000D01*
X7700000Y-7200000D01*
X7700000Y-7750000D01*
X8276410Y-7750000D01*
X8317004Y-7727834D01*
X8343362Y-7725000D01*
X8998138Y-7725000D01*
X9060136Y-7741612D01*
X9068216Y-7746277D01*
X9220943Y-7787200D01*
X9367200Y-7787200D01*
X9434239Y-7806885D01*
X9479994Y-7859689D01*
X9491200Y-7911200D01*
X9491200Y-8101000D01*
X9471515Y-8168039D01*
X9418711Y-8213794D01*
X9367200Y-8225000D01*
X8608590Y-8225000D01*
X8567996Y-8247166D01*
X8541638Y-8250000D01*
X7324000Y-8250000D01*
X7256961Y-8230315D01*
X7211206Y-8177511D01*
X7200000Y-8126000D01*
X7200000Y-7200000D01*
X7049300Y-7200000D01*
X6982261Y-7180315D01*
X6936506Y-7127511D01*
X6925300Y-7076000D01*
X6925300Y-6422260D01*
X6925301Y-6422247D01*
X6925301Y-6330700D01*
X6944986Y-6263661D01*
X6966061Y-6245399D01*
X6963681Y-6243019D01*
X7000000Y-6206700D01*
X7500000Y-6206700D01*
X7647828Y-6206700D01*
X7647844Y-6206699D01*
X7707372Y-6200298D01*
X7707379Y-6200296D01*
X7842086Y-6150054D01*
X7842093Y-6150050D01*
X7957187Y-6063890D01*
X7957190Y-6063887D01*
X8043350Y-5948793D01*
X8043354Y-5948786D01*
X8069318Y-5879174D01*
X8111189Y-5823240D01*
X8124800Y-5818162D01*
X8115168Y-5808530D01*
X8100000Y-5749103D01*
X8100000Y-5056700D01*
X7500000Y-5056700D01*
X7500000Y-6206700D01*
X7000000Y-6206700D01*
X7000000Y-3406700D01*
X7500000Y-3406700D01*
X7500000Y-4556700D01*
X8100000Y-4556700D01*
X8100000Y-4256200D01*
X8119685Y-4189161D01*
X8172489Y-4143406D01*
X8224000Y-4132200D01*
X8371457Y-4132200D01*
X8499504Y-4106729D01*
X8511620Y-4104319D01*
X8643653Y-4049629D01*
X8762479Y-3970232D01*
X8863532Y-3869179D01*
X8942929Y-3750353D01*
X8997619Y-3618320D01*
X9025500Y-3478155D01*
X9025500Y-3335245D01*
X9025500Y-3335242D01*
X9009517Y-3254892D01*
X9015744Y-3185300D01*
X9058607Y-3130123D01*
X9124497Y-3106878D01*
X9131134Y-3106700D01*
X9350000Y-3106700D01*
X9850000Y-3106700D01*
X10447828Y-3106700D01*
X10447844Y-3106699D01*
X10507372Y-3100298D01*
X10507379Y-3100296D01*
X10642086Y-3050054D01*
X10642093Y-3050050D01*
X10757187Y-2963890D01*
X10757190Y-2963887D01*
X10843350Y-2848793D01*
X10843354Y-2848786D01*
X10893596Y-2714079D01*
X10893598Y-2714072D01*
X10899999Y-2654544D01*
X10900000Y-2654527D01*
X10900000Y-1756700D01*
X9850000Y-1756700D01*
X9850000Y-3106700D01*
X9350000Y-3106700D01*
X9350000Y-1756700D01*
X8300000Y-1756700D01*
X8300000Y-2565222D01*
X8280315Y-2632261D01*
X8227511Y-2678016D01*
X8200192Y-2686839D01*
X8088385Y-2709079D01*
X8088379Y-2709081D01*
X7956349Y-2763769D01*
X7956340Y-2763774D01*
X7837521Y-2843167D01*
X7837517Y-2843170D01*
X7736470Y-2944217D01*
X7736467Y-2944221D01*
X7657074Y-3063040D01*
X7657069Y-3063049D01*
X7602381Y-3195079D01*
X7602379Y-3195085D01*
X7580139Y-3306892D01*
X7547754Y-3368803D01*
X7524860Y-3381839D01*
X7500000Y-3406700D01*
X7000000Y-3406700D01*
X6852155Y-3406700D01*
X6792627Y-3413101D01*
X6792619Y-3413103D01*
X6669046Y-3459193D01*
X6599354Y-3464177D01*
X6582389Y-3459196D01*
X6486164Y-3423306D01*
X6457481Y-3412608D01*
X6397883Y-3406201D01*
X6397881Y-3406200D01*
X6397873Y-3406200D01*
X6397864Y-3406200D01*
X5602129Y-3406200D01*
X5602123Y-3406201D01*
X5542516Y-3412608D01*
X5418333Y-3458926D01*
X5348641Y-3463910D01*
X5331667Y-3458926D01*
X5207482Y-3412608D01*
X5207483Y-3412608D01*
X5147883Y-3406201D01*
X5147881Y-3406200D01*
X5147873Y-3406200D01*
X5147865Y-3406200D01*
X4541378Y-3406200D01*
X4474339Y-3386515D01*
X4428584Y-3333711D01*
X4419761Y-3306392D01*
X4397620Y-3195085D01*
X4397619Y-3195084D01*
X4397619Y-3195080D01*
X4342929Y-3063047D01*
X4342928Y-3063046D01*
X4342925Y-3063040D01*
X4263532Y-2944221D01*
X4263529Y-2944217D01*
X4162482Y-2843170D01*
X4162478Y-2843167D01*
X4043659Y-2763774D01*
X4043650Y-2763769D01*
X3911620Y-2709081D01*
X3911614Y-2709079D01*
X3799808Y-2686839D01*
X3737897Y-2654454D01*
X3703323Y-2593738D01*
X3700000Y-2565222D01*
X3700000Y-1756700D01*
X2650000Y-1756700D01*
X2650000Y-3106700D01*
X2868866Y-3106700D01*
X2935905Y-3126385D01*
X2981660Y-3179189D01*
X2991604Y-3248347D01*
X2990483Y-3254892D01*
X2974500Y-3335242D01*
X2974500Y-3335245D01*
X2974500Y-3478155D01*
X2974500Y-3478157D01*
X2974499Y-3478157D01*
X3002379Y-3618314D01*
X3002381Y-3618320D01*
X3057069Y-3750350D01*
X3057074Y-3750359D01*
X3136467Y-3869178D01*
X3136470Y-3869182D01*
X3237517Y-3970229D01*
X3237521Y-3970232D01*
X3356340Y-4049625D01*
X3356346Y-4049628D01*
X3356347Y-4049629D01*
X3488380Y-4104319D01*
X3488384Y-4104319D01*
X3488385Y-4104320D01*
X3628542Y-4132200D01*
X3775500Y-4132200D01*
X3842539Y-4151885D01*
X3888294Y-4204689D01*
X3899500Y-4256200D01*
X3899500Y-5754570D01*
X3899501Y-5754576D01*
X3905908Y-5814183D01*
X3956202Y-5949028D01*
X3956203Y-5949029D01*
X3956204Y-5949031D01*
X4042452Y-6064243D01*
X4042455Y-6064247D01*
X4099810Y-6107182D01*
X4141682Y-6163115D01*
X4149500Y-6206449D01*
X4149500Y-6288568D01*
X4129815Y-6355607D01*
X4077011Y-6401362D01*
X4007853Y-6411306D01*
X3951190Y-6387835D01*
X3942334Y-6381206D01*
X3942328Y-6381202D01*
X3807482Y-6330908D01*
X3807483Y-6330908D01*
X3747883Y-6324501D01*
X3747881Y-6324500D01*
X3747873Y-6324500D01*
X3747864Y-6324500D01*
X2652129Y-6324500D01*
X2652123Y-6324501D01*
X2592516Y-6330908D01*
X2457671Y-6381202D01*
X2457664Y-6381206D01*
X2342455Y-6467452D01*
X2342452Y-6467455D01*
X2256206Y-6582664D01*
X2256202Y-6582671D01*
X2205908Y-6717517D01*
X2199501Y-6777116D01*
X2199500Y-6777135D01*
X2199500Y-7440701D01*
X2179815Y-7507740D01*
X2163182Y-7528382D01*
X2083580Y-7607984D01*
X1894681Y-7796882D01*
X1894679Y-7796885D01*
X1853750Y-7867778D01*
X1853749Y-7867779D01*
X1815623Y-7933814D01*
X1815623Y-7933815D01*
X1774699Y-8086543D01*
X1774699Y-8086545D01*
X1774699Y-8254646D01*
X1774700Y-8254659D01*
X1774700Y-9223730D01*
X1774699Y-9223748D01*
X1774699Y-9375500D01*
X1755014Y-9442539D01*
X1702210Y-9488294D01*
X1650699Y-9499500D01*
X624500Y-9499500D01*
X557461Y-9479815D01*
X511706Y-9427011D01*
X500500Y-9375500D01*
X500500Y-2654544D01*
X1100000Y-2654544D01*
X1106401Y-2714072D01*
X1106403Y-2714079D01*
X1156645Y-2848786D01*
X1156649Y-2848793D01*
X1242809Y-2963887D01*
X1242812Y-2963890D01*
X1357906Y-3050050D01*
X1357913Y-3050054D01*
X1492620Y-3100296D01*
X1492627Y-3100298D01*
X1552155Y-3106699D01*
X1552172Y-3106700D01*
X2150000Y-3106700D01*
X2150000Y-1756700D01*
X1100000Y-1756700D01*
X1100000Y-2654544D01*
X500500Y-2654544D01*
X500500Y-624500D01*
X520185Y-557461D01*
X572989Y-511706D01*
X624500Y-500500D01*
X976000Y-500500D01*
X1043039Y-520185D01*
G37*
%TD.AperFunction*%
%TD*%
M02*
