%TF.GenerationSoftware,KiCad,Pcbnew,8.0.3*%
%TF.CreationDate,2024-10-25T10:31:09+05:30*%
%TF.ProjectId,TINY_HALL_SENSOR,54494e59-5f48-4414-9c4c-5f53454e534f,rev?*%
%TF.SameCoordinates,Original*%
%TF.FileFunction,Legend,Top*%
%TF.FilePolarity,Positive*%
%FSLAX46Y46*%
G04 Gerber Fmt 4.6, Leading zero omitted, Abs format (unit mm)*
G04 Created by KiCad (PCBNEW 8.0.3) date 2024-10-25 10:31:09*
%MOMM*%
%LPD*%
G01*
G04 APERTURE LIST*
%ADD10C,0.098425*%
%ADD11C,0.150000*%
%ADD12C,0.127000*%
%ADD13C,0.200000*%
G04 APERTURE END LIST*
D10*
X10639519Y-8065616D02*
X10658267Y-8084364D01*
X10658267Y-8084364D02*
X10677014Y-8140607D01*
X10677014Y-8140607D02*
X10677014Y-8178102D01*
X10677014Y-8178102D02*
X10658267Y-8234345D01*
X10658267Y-8234345D02*
X10620771Y-8271841D01*
X10620771Y-8271841D02*
X10583276Y-8290588D01*
X10583276Y-8290588D02*
X10508285Y-8309336D01*
X10508285Y-8309336D02*
X10452042Y-8309336D01*
X10452042Y-8309336D02*
X10377052Y-8290588D01*
X10377052Y-8290588D02*
X10339556Y-8271841D01*
X10339556Y-8271841D02*
X10302061Y-8234345D01*
X10302061Y-8234345D02*
X10283313Y-8178102D01*
X10283313Y-8178102D02*
X10283313Y-8140607D01*
X10283313Y-8140607D02*
X10302061Y-8084364D01*
X10302061Y-8084364D02*
X10320809Y-8065616D01*
X10677014Y-7690663D02*
X10677014Y-7915635D01*
X10677014Y-7803149D02*
X10283313Y-7803149D01*
X10283313Y-7803149D02*
X10339556Y-7840644D01*
X10339556Y-7840644D02*
X10377052Y-7878140D01*
X10377052Y-7878140D02*
X10395799Y-7915635D01*
D11*
X9837532Y-2869015D02*
X9837532Y-3431445D01*
X9837532Y-3431445D02*
X9800037Y-3543931D01*
X9800037Y-3543931D02*
X9725046Y-3618922D01*
X9725046Y-3618922D02*
X9612560Y-3656417D01*
X9612560Y-3656417D02*
X9537570Y-3656417D01*
X10174990Y-2944006D02*
X10212485Y-2906510D01*
X10212485Y-2906510D02*
X10287476Y-2869015D01*
X10287476Y-2869015D02*
X10474953Y-2869015D01*
X10474953Y-2869015D02*
X10549943Y-2906510D01*
X10549943Y-2906510D02*
X10587439Y-2944006D01*
X10587439Y-2944006D02*
X10624934Y-3018996D01*
X10624934Y-3018996D02*
X10624934Y-3093987D01*
X10624934Y-3093987D02*
X10587439Y-3206473D01*
X10587439Y-3206473D02*
X10137495Y-3656417D01*
X10137495Y-3656417D02*
X10624934Y-3656417D01*
D12*
%TO.C,J2*%
X2550000Y1193300D02*
X2550000Y-86700D01*
X2550000Y-3806700D02*
X2550000Y-2926700D01*
X2550000Y-3806700D02*
X2905000Y-3806700D01*
X9095000Y-3806700D02*
X9450000Y-3806700D01*
X9450000Y1193300D02*
X2550000Y1193300D01*
X9450000Y-86700D02*
X9450000Y1193300D01*
X9450000Y-3806700D02*
X9450000Y-2926700D01*
D13*
X4850000Y-6456700D02*
G75*
G02*
X4650000Y-6456700I-100000J0D01*
G01*
X4650000Y-6456700D02*
G75*
G02*
X4850000Y-6456700I100000J0D01*
G01*
%TD*%
M02*
